<mxfile host="app.diagrams.net" modified="2023-12-11T11:19:56.122Z" agent="Mozilla/5.0 (Windows NT 10.0; Win64; x64) AppleWebKit/537.36 (KHTML, like Gecko) Chrome/119.0.0.0 Safari/537.36" version="22.1.7" etag="hu8uMB7x1dyahVGhFQgl" type="github">
  <diagram name="第 1 页" id="xi6tzaLoz5o3YHBafJRn">
    <mxGraphModel>
      <root>
        <mxCell id="0" />
        <mxCell id="1" parent="0" />
      </root>
    </mxGraphModel>
  </diagram>
</mxfile>
